<?xml version="1.0" encoding="utf-8"?>
<!-- Generator: Adobe Illustrator 21.0.2, SVG Export Plug-In . SVG Version: 6.00 Build 0)  -->
<svg version="1.1" id="Layer_1" xmlns="http://www.w3.org/2000/svg" xmlns:xlink="http://www.w3.org/1999/xlink" x="0px" y="0px"
	 viewBox="0 0 79 106.2" style="enable-background:new 0 0 79 106.2;" xml:space="preserve">
<style type="text/css">
	.st0{fill:#A6A8AB;}
	.st1{fill:none;stroke:#BE1E2D;stroke-width:2.463;stroke-linecap:round;stroke-miterlimit:10;}
	.st2{fill:none;}
</style>
<g>
	<path class="st0" d="M25,58.2l0.7,1.8l4.7,2.7l-1.2,2L15.6,57l1.2-2l6.3,3.6L19.5,50l1.4-2.5l3.2,8.5l10.7-1.1l-1.5,2.6L25,58.2z"
		/>
	<path class="st0" d="M36.3,44.6L33.8,49l2.8,2.9l-1.3,2.2L24,41.9l1.2-2.1l16.3,3.5l-1.3,2.2L36.3,44.6z M27.3,42.4l5,5.2l2-3.5
		L27.3,42.4z"/>
	<path class="st0" d="M44.6,33.4l-1.1,1.9L33.2,34l10.3,5.7l-1.2,2L28.7,34l1.5-2.6L41.6,33l-7.2-9l1.5-2.6l13.6,7.8l-1.2,2
		l-10.2-5.9L44.6,33.4z"/>
	<path class="st0" d="M51.4,18.1l-2.5,4.4l2.8,2.9l-1.3,2.2L39,15.4l1.2-2.1l16.3,3.5l-1.3,2.2L51.4,18.1z M42.4,15.9l5,5.2l2-3.5
		L42.4,15.9z"/>
</g>
<polyline class="st1" points="1.2,80.2 42.7,80.2 42.8,80.2 56,102.6 "/>
<path class="st2" d="M130.3,202.3"/>
<polyline class="st1" points="12,68.9 42.7,68.7 42.8,68.7 77.8,7.5 "/>
<polyline class="st1" points="73.3,37.8 52.5,74.2 52.5,74.3 65.3,95.9 "/>
<g>
	<path class="st0" d="M37.1,60.8c1-1.7,2.2-1.2,3.7-0.4l0.3,0.2l-1.9,3.3c0.9,0.5,1.8,0.7,2.4-0.5c0.4-0.7,0.6-1.2,0.7-1.8l0.6,0.3
		c-0.1,0.7-0.4,1.3-0.6,1.8c-1,1.7-2.3,1.4-3.8,0.6S36.2,62.5,37.1,60.8z M38.7,63.5l1.5-2.6c-0.9-0.5-1.8-0.9-2.4,0.2
		C37.1,62.3,37.8,63,38.7,63.5z"/>
	<path class="st0" d="M43.1,59.8l-6.5-3.7l0.4-0.7l6.6,3.7c0.3,0.2,0.5,0.1,0.7-0.2l0.6,0.3C44.4,60.1,43.9,60.3,43.1,59.8z"/>
	<path class="st0" d="M41.4,53.3c1-1.7,2.2-1.2,3.7-0.4l0.3,0.2l-1.9,3.3c0.9,0.5,1.8,0.7,2.4-0.5c0.4-0.7,0.6-1.2,0.7-1.8l0.6,0.3
		c-0.1,0.7-0.4,1.3-0.6,1.8c-1,1.7-2.3,1.4-3.8,0.6S40.4,55,41.4,53.3z M42.9,56l1.5-2.6c-0.9-0.5-1.8-0.9-2.4,0.2
		C41.3,54.8,42,55.5,42.9,56z"/>
	<path class="st0" d="M46.3,49.7l4.3-0.7l-0.5,0.9l-3.6,0.5l0.2,1l1.9,1.1l-0.4,0.7l-7.5-4.3l0.4-0.7l4.7,2.7l-0.9-3.5l0.5-0.9
		L46.3,49.7z"/>
	<path class="st0" d="M52.5,45.7c0,0.1-0.1,0.3-0.2,0.5C51.8,47,51,47.6,50,47l-3.2-1.8l-0.6,1L46,46l0.3-1.2l-1.3-0.8l0.2-0.8
		l1.6,0.9l0.9-1.5l0.5,0.3l-0.9,1.5l3.1,1.8c0.6,0.3,1,0.2,1.4-0.5c0.1-0.1,0.1-0.3,0.2-0.4L52.5,45.7z"/>
	<path class="st0" d="M50.3,39.3c-0.1,0.1-0.3,0.3-0.4,0.6c-0.4,0.7-0.5,1.1-0.5,1.6l4.1,2.4l-0.4,0.7l-5-2.8l0.2-0.4l0.5,0.1
		c-0.1-0.7,0.1-1.3,0.4-1.9c0.1-0.2,0.3-0.4,0.4-0.6L50.3,39.3z"/>
	<path class="st0" d="M56.4,39c-1,1.7-2.3,1.5-3.8,0.6c-1.5-0.9-2.4-1.9-1.4-3.6c1-1.7,2.3-1.5,3.8-0.6C56.5,36.3,57.4,37.3,56.4,39
		z M51.8,36.4c-0.7,1.3,0.1,1.9,1.2,2.5s2,1,2.8-0.3c0.7-1.3-0.1-1.9-1.2-2.5C53.5,35.5,52.6,35.1,51.8,36.4z"/>
	<path class="st0" d="M59.7,33.1c0,0.1-0.1,0.3-0.2,0.5c-0.5,0.8-1.3,1.4-2.3,0.8L54,32.6l-0.6,1l-0.3-0.2l0.3-1.2l-1.3-0.8l0.2-0.8
		l1.6,0.9l0.9-1.5l0.5,0.3l-0.9,1.5l3.1,1.8c0.6,0.3,1,0.2,1.4-0.5c0.1-0.1,0.1-0.3,0.2-0.4L59.7,33.1z"/>
	<path class="st0" d="M56.3,27c1-1.7,2.2-1.2,3.7-0.4l0.3,0.2l-1.9,3.3c0.9,0.5,1.8,0.7,2.4-0.5c0.4-0.7,0.6-1.2,0.7-1.8l0.6,0.3
		c-0.1,0.7-0.4,1.3-0.6,1.8c-1,1.7-2.3,1.4-3.8,0.6S55.4,28.7,56.3,27z M57.9,29.8l1.5-2.6c-0.9-0.5-1.8-0.9-2.4,0.2
		C56.3,28.5,57,29.2,57.9,29.8z"/>
	<path class="st0" d="M59.2,21.9c0.3-0.5,0.7-1,1.1-1.3l0.6,0.3c-0.4,0.3-0.7,0.7-1.1,1.4c-0.7,1.3,0.2,2,1.2,2.5s2.1,1,2.8-0.3
		c0.4-0.7,0.5-1.2,0.6-1.6l0.6,0.3c-0.1,0.5-0.3,1.1-0.6,1.6c-1,1.7-2.4,1.4-3.8,0.6C59.2,24.7,58.3,23.6,59.2,21.9z"/>
	<path class="st0" d="M62.5,17.7c-0.4,0.6-0.5,1.1-0.5,1.5l4.1,2.4l-0.4,0.7L58.3,18l0.4-0.7l2.8,1.6c0-0.6,0.1-1.1,0.4-1.6
		c0.7-1.2,1.5-1.4,2.5-0.8l3.6,2l-0.4,0.7l-3.6-2.1C63.2,16.8,62.8,17.1,62.5,17.7z"/>
	<path class="st0" d="M66.7,12.2c-0.6-0.4-1.1-0.1-1.4,0.5c-0.4,0.6-0.4,1-0.4,1.5l4.1,2.4l-0.4,0.7l-5-2.8l0.2-0.4l0.5,0.1
		c-0.1-0.7,0-1.3,0.3-1.8c0.7-1.2,1.5-1.4,2.5-0.8l3.6,2l-0.4,0.7L66.7,12.2z"/>
	<path class="st0" d="M64.8,7.8c0.2-0.3,0.5-0.4,0.8-0.2s0.4,0.5,0.2,0.8c-0.2,0.3-0.5,0.4-0.8,0.2S64.6,8.1,64.8,7.8z M70.5,11.6
		l-4-2.3l0.4-0.7l4.1,2.3c0.3,0.2,0.5,0.1,0.7-0.2l0.6,0.3C71.8,11.8,71.3,12,70.5,11.6z"/>
	<path class="st0" d="M70.9,6.5l4.3-0.7l-0.5,0.9L71,7.2l0.2,1l1.9,1.1l-0.4,0.7l-7.5-4.3L65.7,5l4.7,2.7l-0.9-3.5L70,3.2L70.9,6.5z
		"/>
</g>
<path class="st0" d="M64.9,55.1C70.5,59.9,74,67,74,74.9c0,14.5-11.8,26.3-26.3,26.3c-12.2,0-22.5-8.4-25.4-19.8h-5.1
	c3,14.1,15.5,24.7,30.5,24.7c17.2,0,31.2-14,31.2-31.2c0-9.8-4.5-18.5-11.6-24.2L64.9,55.1z"/>
<g>
</g>
<g>
</g>
<g>
</g>
<g>
</g>
<g>
</g>
<g>
</g>
<g>
</g>
<g>
</g>
<g>
</g>
<g>
</g>
<g>
</g>
<g>
</g>
<g>
</g>
<g>
</g>
<g>
</g>
</svg>
